<svg xmlns="http://www.w3.org/2000/svg" version="1.1" width="48" height="48" x="0" y="0" viewBox="0 0 512 512"
     style="enable-background:new 0 0 512 512" xml:space="preserve" class=""><g><linearGradient id="a" x1="96.437" x2="415.562" y1="414.886" y2="95.761" gradientUnits="userSpaceOnUse"><stop offset="0" stop-color="#f803fe"></stop><stop offset="1" stop-color="#0ecbde"></stop></linearGradient><path fill="url(#a)" d="M490.064 233.495c-10.178 0-18.684 7.037-21.084 16.483h-80.129c-2.947 0-5.331 2.387-5.331 5.331s2.384 5.331 5.331 5.331h80.12c2.391 9.46 10.904 16.509 21.092 16.509 12.037 0 21.829-9.79 21.829-21.827s-9.792-21.827-21.828-21.827zm0 32.992c-6.154 0-11.162-5.008-11.162-11.165s5.008-11.165 11.162-11.165c6.159 0 11.167 5.008 11.167 11.165s-5.009 11.165-11.167 11.165zm-101.213-38.901h20.366c19.783 0 35.876-16.095 35.876-35.878v-19.827c9.441-2.401 16.477-10.904 16.477-21.086 0-12.037-9.793-21.827-21.824-21.827-12.037 0-21.829 9.79-21.829 21.827 0 10.193 7.052 18.706 16.514 21.096v19.817c0 13.903-11.313 25.216-25.213 25.216h-20.366a5.33 5.33 0 0 0-5.331 5.331 5.328 5.328 0 0 0 5.33 5.331zm39.728-76.79c0-6.156 5.008-11.165 11.167-11.165 6.154 0 11.162 5.008 11.162 11.165s-5.008 11.165-11.162 11.165c-6.159-.001-11.167-5.009-11.167-11.165zm16.514 187.97v-19.858c0-19.752-16.092-35.824-35.876-35.824h-20.366c-2.947 0-5.331 2.387-5.331 5.331s2.384 5.331 5.331 5.331h20.366c13.9 0 25.213 11.287 25.213 25.161v19.846c-10.064 2.52-16.514 11.344-16.514 21.098 0 12.037 9.793 21.827 21.829 21.827 12.031 0 21.824-9.79 21.824-21.827.001-10.179-7.035-18.683-16.476-21.085zm-5.347 32.25c-6.159 0-11.167-5.008-11.167-11.165 0-6.12 4.931-11.123 11.098-11.158.03.001.055.017.085.017.026 0 .047-.014.072-.015 6.113.048 11.074 5.029 11.074 11.156 0 6.157-5.008 11.165-11.162 11.165zm-178.415 89.81v-85.14a5.331 5.331 0 0 0-10.662 0v85.14c-9.452 2.395-16.496 10.904-16.496 21.091 0 12.037 9.79 21.827 21.827 21.827s21.829-9.79 21.829-21.827c0-10.187-7.044-18.695-16.498-21.091zM256 493.082c-6.156 0-11.165-5.008-11.165-11.165s5.008-11.165 11.165-11.165c6.159 0 11.167 5.008 11.167 11.165s-5.008 11.165-11.167 11.165zm104.529-83.314c-10.192 0-18.707 7.049-21.098 16.509h-19.833c-13.874 0-25.161-11.313-25.161-25.216v-25.375c0-2.944-2.384-5.331-5.331-5.331s-5.331 2.387-5.331 5.331v25.375c0 19.783 16.071 35.878 35.824 35.878h19.841c2.4 9.446 10.907 16.483 21.089 16.483 12.031 0 21.824-9.79 21.824-21.827s-9.792-21.827-21.824-21.827zm0 32.991c-6.159 0-11.167-5.008-11.167-11.165 0-6.156 5.008-11.165 11.167-11.165 6.154 0 11.162 5.008 11.162 11.165s-5.008 11.165-11.162 11.165zm-137.635-72.404a5.331 5.331 0 0 0-5.331 5.331v25.375c0 13.903-11.29 25.216-25.164 25.216h-19.831c-2.391-9.46-10.903-16.509-21.095-16.509-12.037 0-21.827 9.79-21.827 21.827s9.79 21.827 21.827 21.827c10.183 0 18.687-7.037 21.087-16.483h19.839c19.755 0 35.826-16.095 35.826-35.878v-25.375a5.331 5.331 0 0 0-5.331-5.331zm-71.421 72.404c-6.156 0-11.165-5.008-11.165-11.165 0-6.156 5.008-11.165 11.165-11.165s11.165 5.008 11.165 11.165-5.008 11.165-11.165 11.165zm-28.324-192.781H43.021c-2.4-9.446-10.904-16.483-21.087-16.483-12.037 0-21.827 9.79-21.827 21.827s9.79 21.827 21.827 21.827c10.192 0 18.704-7.049 21.095-16.509h80.12a5.331 5.331 0 0 0 0-10.662zM21.934 266.487c-6.156 0-11.165-5.008-11.165-11.165s5.008-11.165 11.165-11.165 11.165 5.008 11.165 11.165-5.009 11.165-11.165 11.165zm101.215-49.563h-20.366c-13.903 0-25.216-11.313-25.216-25.216v-19.815c9.463-2.388 16.517-10.902 16.517-21.098 0-12.037-9.79-21.827-21.827-21.827s-21.827 9.79-21.827 21.827c0 10.18 7.033 18.682 16.475 21.085v19.828c0 19.783 16.095 35.878 35.878 35.878h20.366a5.331 5.331 0 0 0 0-10.662zm-62.057-66.128c0-6.156 5.008-11.165 11.165-11.165s11.165 5.008 11.165 11.165-5.008 11.165-11.165 11.165-11.165-5.009-11.165-11.165zm62.057 132.288h-20.366c-19.783 0-35.878 16.071-35.878 35.824v19.859c-9.442 2.403-16.475 10.907-16.475 21.085 0 12.037 9.79 21.827 21.827 21.827s21.827-9.79 21.827-21.827c0-9.717-6.411-18.572-16.517-21.1v-19.844c0-13.874 11.313-25.161 25.216-25.161h20.366a5.331 5.331 0 0 0 0-10.663zm-39.728 76.767c0 6.156-5.008 11.165-11.165 11.165s-11.165-5.008-11.165-11.165c0-6.124 4.959-11.103 11.074-11.155.025 0 .045.014.07.014.031 0 .056-.017.087-.018 6.173.035 11.099 5.041 11.099 11.159zm112.633-.174h119.895c31.393 0 56.929-25.539 56.929-56.932V176.941c0-14.322-11.651-25.973-25.968-25.973h-10.324v-62.12c0-45.954-38.454-82.789-84.642-80.49-42.917 2.122-76.533 38.434-76.533 82.671v11.443c0 12.703 10.337 23.037 23.04 23.037s23.037-10.334 23.037-23.037V88.848c0-19.297 16.232-35.758 36.883-34.434 18.021 1.208 32.14 16.949 32.14 35.839v60.714H165.093c-14.322 0-25.974 11.651-25.974 25.973v125.804c0 31.394 25.542 56.933 56.935 56.933zm63.031-315.899c-26.569-1.806-48.258 19.432-48.258 45.07v13.625c0 6.823-5.552 12.375-12.375 12.375-6.825 0-12.378-5.552-12.378-12.375V91.029c0-38.546 29.165-70.182 66.397-72.019 39.604-2.061 73.454 29.599 73.454 69.838v62.12h-24.75V90.253c-.001-24.482-18.488-44.895-42.09-46.475zM149.781 176.941c0-8.442 6.87-15.311 15.311-15.311h181.817c8.439 0 15.306 6.87 15.306 15.311v125.804c0 25.513-20.757 46.27-46.267 46.27H196.054c-25.515 0-46.272-20.757-46.272-46.27V176.941zm90.299 83.731-5.875 13.651c-3.796 8.815 2.664 18.672 12.289 18.672h19.013c9.616 0 16.08-9.847 12.292-18.669l-5.873-13.651c0-.003-.005-.005-.005-.005-.526-1.226.057-2.447.786-3.178a23.18 23.18 0 0 0 6.737-16.394c0-12.927-10.516-23.443-23.443-23.443s-23.443 10.516-23.443 23.443c0 6.18 2.392 12 6.737 16.394.725.733 1.313 1.953.785 3.18zM256 228.315c7.049 0 12.781 5.735 12.781 12.781a12.55 12.55 0 0 1-3.655 8.892c-3.988 4.027-5.162 9.879-2.994 14.903L268 278.536a2.712 2.712 0 0 1-2.494 3.795h-19.013c-1.947 0-3.276-1.985-2.496-3.793l5.875-13.651c2.163-5.024.984-10.873-3.001-14.897a12.572 12.572 0 0 1-3.652-8.895c0-7.045 5.734-12.78 12.781-12.78z" data-original="url(#a)" class=""></path></g></svg>
